<?xml version="1.0" encoding="utf-8"?>
<!-- Generator: Adobe Illustrator 23.0.3, SVG Export Plug-In . SVG Version: 6.00 Build 0)  -->
<svg version="1.1" id="レイヤー_1" xmlns="http://www.w3.org/2000/svg" xmlns:xlink="http://www.w3.org/1999/xlink" x="0px"
	 y="0px" viewBox="0 0 156.9907 111.2246" style="enable-background:new 0 0 156.9907 111.2246;" xml:space="preserve">
<style type="text/css">
	.st0{fill:#FF40AB;}
	.st1{fill:#FFFFFF;}
</style>
<g>
	<g>
		<path class="st0" d="M48.8325,58.3466c-0.5756,0.4043-0.7417,1.0801-0.2719,1.75l4.039,5.7637
			c0.3013,0.4287,0.7901,1.126,0.0391,1.6514c-0.603,0.4228-1.4199,0.2558-1.9561,0.6318
			c-0.4419,0.3106-0.4311,0.9815-0.1767,1.3438c0.8169,1.166,2.6118,0.4472,3.5366-0.2012
			c1.2192-0.8555,2.2402-2.4492,0.6621-4.7012l-4.1338-5.8965C50.1006,58.0175,49.4087,57.9433,48.8325,58.3466L48.8325,58.3466z
			 M38.2447,68.0546c0.0039-0.0029,0.0092-0.0039,0.0131-0.0068c0.0679,0.4697,0.146,0.9365,0.232,1.4004
			c0.0097-0.0176,0.0151-0.0254,0.0219-0.0381c0.045-0.0762,0.045-0.0762,0,0c-0.0068,0.0127-0.0122,0.0205-0.0219,0.0381l0,0l0,0
			c0.0752,0.3975,0.1709,0.79,0.2588,1.1836c0.0063-0.0068,0.0102-0.0147,0.0161-0.0215c1.2832-1.5937,3.3188-1.2773,4.8608-0.0351
			c1.5562,1.2529,2.3062,3.1386,1.0025,4.7578c-1.1534,1.4306-2.8521,1.3359-4.3052,0.4297c0.1821,0.458,0.3647,0.916,0.5669,1.3662
			c0.1259,0.0283,0.2202,0.0488,0.2832,0.0634c-0.063-0.0146-0.1573-0.0351-0.2832-0.0634c0,0.0009,0.0009,0.0019,0.0009,0.0019
			c-0.4389,0.3545-0.8398,0.7451-1.2216,1.1524c2.3549,1.0634,5.0107,0.5859,6.7177-1.5332c2.105-2.6143,1.48-6.0381-1.1591-8.1631
			C43.1026,66.875,40.3159,66.6601,38.2447,68.0546L38.2447,68.0546z M110.6035,76.75c1.7071,2.1191,4.3633,2.5966,6.7193,1.5341
			c-0.3828-0.4082-0.7842-0.7988-1.2232-1.1533c0.001,0,0.001-0.001,0.001-0.001l0,0c0.2022-0.4502,0.3862-0.9082,0.5669-1.3671
			c-1.4526,0.9072-3.1519,1.0019-4.3047-0.4297c-1.3032-1.6192-0.5532-3.5049,1.002-4.7578
			c1.542-1.2422,3.5791-1.5586,4.8618,0.0361c0.0054,0.0068,0.0093,0.0137,0.0151,0.0205c0.0879-0.3955,0.1851-0.7881,0.2603-1.1875
			l0,0c0.0859-0.4629,0.1636-0.9307,0.2319-1.3994c-2.0703-1.3848-4.8501-1.166-6.9702,0.542
			C109.1245,70.7119,108.4995,74.1367,110.6035,76.75L110.6035,76.75z M109.7515,61.0468l-4.4829,5.4248
			c-0.333,0.4043-0.876,1.0606-1.5821,0.4766c-0.5678-0.4697-0.624-1.3008-1.1279-1.7178c-0.417-0.3447-1.061-0.1552-1.3428,0.1856
			c-0.9072,1.0967,0.2627,2.6367,1.1329,3.3564c1.1479,0.9483,2.957,1.5098,4.708-0.6103l4.5879-5.5508
			c0.521-0.6309,0.4091-1.3184-0.1329-1.7666C110.9688,60.3974,110.2739,60.416,109.7515,61.0468L109.7515,61.0468z
			 M78.4956,60.8427c0.8843,0,1.1953-0.5556,1.3091-0.9492l1.9639-6.8574h0.0332l0.9658,6.6611
			c0.1143,0.7696,0.4409,1.1455,1.2759,1.1455c0.6553,0,1.1792-0.458,1.1792-1.1777c0-0.082,0-0.1797-0.0171-0.2793l-1.522-9.1318
			c-0.0976-0.5889-0.7358-1.2598-1.604-1.2598c-0.8179,0-1.457,0.5889-1.6367,1.1777l-1.9312,6.4815h-0.0332l-1.9306-6.4815
			c-0.1802-0.5888-0.8184-1.1777-1.6363-1.1777c-0.8676,0-1.5058,0.6709-1.604,1.2598l-1.5229,9.1318
			c-0.0161,0.0996-0.0161,0.1973-0.0161,0.2793c0,0.7197,0.5239,1.1777,1.1782,1.1777c0.835,0,1.1631-0.3759,1.2769-1.1455
			l0.9663-6.6611h0.0317l1.9639,6.8574C77.3008,60.2871,77.6118,60.8427,78.4956,60.8427L78.4956,60.8427z M91.5796,60.6972
			l4.291,1.5117l-0.042,1.5977c-0.0146,0.5332,0.19,0.9873,0.8233,1.21c0.6167,0.2187,1.3047-0.0606,1.5229-0.6778
			c0.0869-0.247,0.0747-0.4599,0.0708-0.5478l-0.145-9.4903c-0.0117-0.8027-0.4131-1.5859-1.1997-1.8632
			c-0.8193-0.2881-1.5801,0.0507-2.103,0.6992l-5.9839,7.332c-0.1802,0.2148-0.2871,0.4199-0.3252,0.5283
			c-0.2119,0.6016,0.1348,1.1934,0.707,1.3936c0.648,0.2285,1.0918,0.0029,1.4092-0.4053L91.5796,60.6972L91.5796,60.6972z
			 M93.0249,58.8105l3.0117-3.9707l0.0313,0.0107l-0.1104,4.9932L93.0249,58.8105L93.0249,58.8105z M68.1778,60.4687l-5.9839-7.332
			c-0.523-0.6485-1.2852-0.9873-2.1031-0.6992c-0.7871,0.2773-1.1879,1.0605-1.2011,1.8632l-0.145,9.4903
			c-0.003,0.0879-0.0147,0.3008,0.0722,0.5478c0.2168,0.6172,0.9048,0.8965,1.523,0.6778c0.6328-0.2227,0.8369-0.6768,0.8227-1.21
			l-0.042-1.5977l4.291-1.5117l0.9742,1.2881c0.3178,0.4082,0.7622,0.6338,1.4101,0.4053c0.5708-0.2002,0.918-0.792,0.7056-1.3936
			C68.4639,60.8886,68.357,60.6835,68.1778,60.4687L68.1778,60.4687z M63.9668,58.8105l-2.9331,1.0332l-0.1098-4.9932l0.0307-0.0107
			L63.9668,58.8105L63.9668,58.8105z"/>
		<path class="st0" d="M156.9907,29.413c0-16.2441-13.1689-29.413-29.413-29.413c-16.2442,0-29.4131,13.1689-29.4131,29.413
			c0,0.6128,0.0254,1.2198,0.062,1.8238c-5.4707-2.7608-11.7217-4.395-18.376-4.5938l0.001-0.0332
			c-5.625-0.3056-10.4429-2.1347-12.938-4.6011c-0.6528-0.6865-1.2871-1.4248-1.8867-2.2265
			c-0.7271-1.0474-1.7271-1.6792-2.6851-1.6821v-0.0123c-0.021,0.001-0.041,0.0103-0.061,0.0123
			c-0.208,0.0048-0.4151,0.0297-0.6152,0.0991c-0.5967,0.2046-1.0489,0.6767-1.334,1.3037
			c-0.8858,1.313-1.5166,3.4492-1.7701,6.0181C56.6558,11.1181,44.3369,0,29.4131,0C13.169,0,0,13.1689,0,29.413
			c0,16.2442,13.169,29.4131,29.4126,29.4131c1.3604,0,2.6973-0.0996,4.0073-0.2793c-2.1494,1.5078-4.4638,2.919-6.9531,4.2032
			v0.0156c-1.3867,0.7197-2.2612,1.749-2.2612,2.8984c0,2.1709,3.1059,3.9307,6.938,3.9307c0.1504,0,0.2973-0.0069,0.4463-0.0117
			c0.6728,0.0205,1.3608-0.003,2.063-0.0889c1.6938-0.208,3.249-0.7188,4.5918-1.4395c2.0712-1.3945,4.8579-1.1796,6.9829,0.5323
			c2.6391,2.125,3.2641,5.5488,1.1591,8.1621c-1.707,2.1201-4.3628,2.5976-6.7177,1.5342
			c-1.9214,2.0459-3.1021,4.7275-3.1021,7.6796c0,6.4043,5.4859,11.5957,12.2529,11.5957c0.8531,0,1.6797-0.0966,2.483-0.2548
			l0.415,1.1406c0.02,0.0693,0.0508,0.1299,0.0718,0.1973l0.0674,0.1845h0.0019c0.0811,0.2324,0.1538,0.4717,0.2568,0.6826
			c0.4771,1.2598,1.9849,3.1153,4.0572,4.8584c0.749,0.6299,1.501,1.1846,2.2168,1.6485c4.518,3.1562,11.8379,5.209,20.104,5.209
			l0,0c0.001,0,0.001,0,0.0019,0h0.001l0,0c8.2661,0,15.5859-2.0528,20.105-5.209c0.7163-0.4639,1.4673-1.0186,2.2163-1.6485
			c2.0718-1.7431,3.5801-3.5986,4.0566-4.8584c0.1031-0.2109,0.1773-0.4502,0.2574-0.6826h0.0019l0.0669-0.1845
			c0.021-0.0674,0.0532-0.128,0.0723-0.1973l0.4145-1.1406c0.8042,0.1582,1.6304,0.2548,2.4834,0.2548
			c6.7666,0,12.253-5.1914,12.253-11.5957c0-2.9521-1.1812-5.6328-3.1011-7.6787c-2.356,1.0625-5.0122,0.585-6.7193-1.5341
			c-2.104-2.6133-1.479-6.0381,1.1602-8.1631c2.1201-1.708,4.8999-1.9268,6.9702-0.542c0.0689-0.4756,0.1279-0.9561,0.1758-1.4385
			l0,0c0.1069-1.082,0.1689-2.1768,0.1689-3.2842c0-2.0146-0.186-3.9892-0.5307-5.915c2.8457,0.918,5.8789,1.4189,9.0298,1.4189
			C143.8218,58.8261,156.9907,45.6572,156.9907,29.413L156.9907,29.413z M54.0425,69.2861
			c-0.9248,0.6484-2.7197,1.3672-3.5366,0.2012c-0.2544-0.3623-0.2652-1.0332,0.1767-1.3438
			c0.5362-0.376,1.3531-0.209,1.9561-0.6318c0.751-0.5254,0.2622-1.2227-0.0391-1.6514l-4.039-5.7637
			c-0.4698-0.6699-0.3037-1.3457,0.2719-1.75c0.5762-0.4033,1.2681-0.3291,1.7383,0.3418l4.1338,5.8965
			C56.2827,66.8369,55.2617,68.4306,54.0425,69.2861L54.0425,69.2861z M67.7959,62.3906c-0.6479,0.2285-1.0923,0.0029-1.4101-0.4053
			l-0.9742-1.2881l-4.291,1.5117l0.042,1.5977c0.0142,0.5332-0.1899,0.9873-0.8227,1.21c-0.6182,0.2187-1.3062-0.0606-1.523-0.6778
			c-0.0869-0.247-0.0752-0.4599-0.0722-0.5478l0.145-9.4903c0.0132-0.8027,0.414-1.5859,1.2011-1.8632
			c0.8179-0.2881,1.5801,0.0507,2.1031,0.6992l5.9839,7.332c0.1792,0.2139,0.2861,0.4199,0.3237,0.5283
			C68.7139,61.5986,68.3667,62.1904,67.7959,62.3906L67.7959,62.3906z M85.2227,59.665c0,0.7197-0.5239,1.1777-1.1792,1.1777
			c-0.835,0-1.1616-0.3759-1.2769-1.1455l-0.9648-6.6611h-0.0332l-1.9639,6.8574c-0.1138,0.3936-0.4248,0.9492-1.3091,0.9492
			c-0.8838,0-1.1948-0.5556-1.31-0.9492l-1.9639-6.8574H75.19l-0.9663,6.6611c-0.1138,0.7696-0.4419,1.1455-1.2769,1.1455
			c-0.6543,0-1.1782-0.458-1.1782-1.1777c0-0.082,0-0.1797,0.0161-0.2793l1.5229-9.1318c0.0982-0.5889,0.7364-1.2598,1.604-1.2598
			c0.8179,0,1.4561,0.5889,1.6363,1.1777l1.9306,6.4815h0.0332l1.9312-6.4815c0.1797-0.5888,0.8188-1.1777,1.6367-1.1777
			c0.8682,0,1.5064,0.6709,1.604,1.2598l1.522,9.1318C85.2227,59.4853,85.2227,59.583,85.2227,59.665L85.2227,59.665z
			 M98.1748,64.3388c-0.2182,0.6172-0.9062,0.8965-1.5229,0.6778c-0.6333-0.2227-0.8379-0.6768-0.8233-1.21l0.042-1.5977
			l-4.291-1.5117l-0.9746,1.2881c-0.3174,0.4082-0.7612,0.6338-1.4092,0.4053c-0.5722-0.2002-0.9189-0.792-0.707-1.3936
			c0.0381-0.1084,0.145-0.3144,0.3252-0.5283l5.9839-7.332c0.5229-0.6485,1.2837-0.9873,2.103-0.6992
			c0.7866,0.2773,1.188,1.0605,1.1997,1.8632l0.145,9.4903C98.2495,63.8789,98.2617,64.0918,98.1748,64.3388L98.1748,64.3388z
			 M111.6446,62.6113l-4.5879,5.5508c-1.751,2.1201-3.5601,1.5586-4.708,0.6103c-0.8702-0.7197-2.0401-2.2597-1.1329-3.3564
			c0.2818-0.3408,0.9258-0.5303,1.3428-0.1856c0.5039,0.417,0.5601,1.2481,1.1279,1.7178c0.7061,0.584,1.2491-0.0723,1.5821-0.4766
			l4.4829-5.4248c0.5224-0.6308,1.2173-0.6504,1.7602-0.2021C112.0537,61.2929,112.1656,61.9804,111.6446,62.6113L111.6446,62.6113z
			 M95.9575,59.8437l0.1104-4.9932l-0.0313-0.0107l-3.0117,3.9707L95.9575,59.8437L95.9575,59.8437z M61.0337,59.8437l2.9331-1.0332
			l-3.0122-3.9707l-0.0307,0.0107L61.0337,59.8437L61.0337,59.8437z M39.5425,73.6152c0.2354,0.7256,0.5,1.4394,0.7803,2.1475
			c1.4531,0.9062,3.1518,1.0009,4.3052-0.4297c1.3037-1.6192,0.5537-3.5049-1.0025-4.7578
			c-1.542-1.2422-3.5776-1.5586-4.8608,0.0351c-0.0059,0.0068-0.0098,0.0147-0.0161,0.0215
			C38.9737,71.6396,39.2266,72.6386,39.5425,73.6152L39.5425,73.6152L39.5425,73.6152z M116.6675,75.7627
			c0.2803-0.7061,0.5454-1.419,0.7793-2.1436l0,0c0.3159-0.9785,0.5698-1.9785,0.7949-2.9873
			c-0.0058-0.0068-0.0097-0.0137-0.0151-0.0205c-1.2827-1.5947-3.3198-1.2783-4.8618-0.0361
			c-1.5552,1.2529-2.3052,3.1386-1.002,4.7578C113.5156,76.7646,115.2149,76.6699,116.6675,75.7627L116.6675,75.7627z"/>
		<path class="st0" d="M31.0239,5.6801c-5.6162-0.6889-11.2324,2.7598-11.9501,8.606c-0.7178,5.8457,3.8969,10.5508,9.5126,11.2407
			c5.7696,0.708,11.1402-2.6538,11.8721-8.6147C41.1909,10.9502,36.7925,6.3891,31.0239,5.6801L31.0239,5.6801z M35.3819,16.288
			c-0.3682,3-3.461,4.0259-6.1153,3.6997c-2.6538-0.3256-5.4887-2.0395-5.1157-5.0786c0.373-3.0381,3.5386-4.0161,6.1919-3.6904
			C32.9966,11.5449,35.7505,13.288,35.3819,16.288L35.3819,16.288z M20.8291,25.2377c-3.9302-2.9619-8.7461-1.7866-11.6142,2.0191
			c-2.8687,3.8071-2.355,9.6294,1.5449,12.5674c1.2065,0.9096,2.8423,0.9287,3.9614-0.5572
			c2.2388-2.9711-4.0576-5.0468-1.3755-8.6059c0.9561-1.2691,2.7935-1.3882,4.062-0.4321c1.1143,0.8388,1.6773,2.0879,2.062,3.2519
			c1.6319,4.917,2.3184,9.8013,3.4468,14.6792c0.1377,0.5889,0.3916,1.4107,1.0415,1.9009c1.4239,1.0727,2.836,0.4868,3.8618-0.875
			l7.7891-10.3359c0.8867-1.1763,1.061-2.6954-0.3633-3.7681c-1.4238-1.0733-2.8359-0.4868-3.8618,0.875l-4.2676,5.6631
			C25.7871,36.4951,25.1309,28.479,20.8291,25.2377L20.8291,25.2377z"/>
		<path class="st0" d="M126.4165,28.852c-0.854-4.02-6.1738-6.2969-11.8818-5.083c-1.9268,0.4092-3.6441,1.1699-5.0508,2.145
			c1.0068,4.52,3.1021,8.3877,5.752,11.1299c0,0,1.373,1.5679,1.582,2.5513c0.0889,0.4189,0.1118,0.8388,0.0767,1.2529
			c-1.1929-1.6982-3.8951-2.543-6.751-1.936c-3.5039,0.7451-5.9097,3.3921-5.374,5.9131c0.5361,2.5209,3.81,3.9599,7.3139,3.2148
			c2.0073-0.4258,3.6533-1.4771,4.5933-2.771l0,0c0.7002-0.9282,1.2549-1.9839,1.6382-3.124
			c0.5439-1.5269,0.6518-3.5869,0.1909-5.7549h-0.002c-0.0034-0.0142-0.0073-0.0283-0.0112-0.043h0.0029
			c-0.0747-0.3139-0.601-1.8511-0.7158-2.393c-0.1123-0.5274-0.1499-1.0391-0.123-1.5093c0.0571-1.6148,1.2021-3.0459,2.8549-3.397
			c1.9483-0.4141,3.8628,0.8301,4.2769,2.7783c0.2651,1.2481-0.1499,2.481-0.9946,3.3159c0.1137-0.0371,0.2675-0.1333,0.2675-0.1333
			c0.0811-0.0527,0.3111-0.2529,0.3331-0.2768C126.0425,32.999,126.8516,30.8979,126.4165,28.852L126.4165,28.852z"/>
	</g>
	<g>
		<path class="st1" d="M48.8325,58.3466c-0.5756,0.4043-0.7417,1.0801-0.2719,1.75l4.039,5.7637
			c0.3013,0.4287,0.7901,1.126,0.0391,1.6514c-0.603,0.4228-1.4199,0.2558-1.9561,0.6318
			c-0.4419,0.3106-0.4311,0.9815-0.1767,1.3438c0.8169,1.166,2.6118,0.4472,3.5366-0.2012
			c1.2192-0.8555,2.2402-2.4492,0.6621-4.7012l-4.1338-5.8965C50.1006,58.0175,49.4087,57.9433,48.8325,58.3466L48.8325,58.3466z
			 M38.2447,68.0546c0.0039-0.0029,0.0092-0.0039,0.0131-0.0068c0.0679,0.4697,0.146,0.9365,0.232,1.4004
			c0.0097-0.0176,0.0151-0.0254,0.0219-0.0381c0.045-0.0762,0.045-0.0762,0,0c-0.0068,0.0127-0.0122,0.0205-0.0219,0.0381l0,0l0,0
			c0.0752,0.3975,0.1709,0.79,0.2588,1.1836c0.0063-0.0068,0.0102-0.0147,0.0161-0.0215c1.2832-1.5937,3.3188-1.2773,4.8608-0.0351
			c1.5562,1.2529,2.3062,3.1386,1.0025,4.7578c-1.1534,1.4306-2.8521,1.3359-4.3052,0.4297c0.1821,0.458,0.3647,0.916,0.5669,1.3662
			c0.1259,0.0283,0.2202,0.0488,0.2832,0.0634c-0.063-0.0146-0.1573-0.0351-0.2832-0.0634c0,0.0009,0.0009,0.0019,0.0009,0.0019
			c-0.4389,0.3545-0.8398,0.7451-1.2216,1.1524c2.3549,1.0634,5.0107,0.5859,6.7177-1.5332c2.105-2.6143,1.48-6.0381-1.1591-8.1631
			C43.1026,66.875,40.3159,66.6601,38.2447,68.0546L38.2447,68.0546z M110.6035,76.75c1.7071,2.1191,4.3633,2.5966,6.7193,1.5341
			c-0.3828-0.4082-0.7842-0.7988-1.2232-1.1533c0.001,0,0.001-0.001,0.001-0.001l0,0c0.2022-0.4502,0.3862-0.9082,0.5669-1.3671
			c-1.4526,0.9072-3.1519,1.0019-4.3047-0.4297c-1.3032-1.6192-0.5532-3.5049,1.002-4.7578
			c1.542-1.2422,3.5791-1.5586,4.8618,0.0361c0.0054,0.0068,0.0093,0.0137,0.0151,0.0205c0.0879-0.3955,0.1851-0.7881,0.2603-1.1875
			l0,0c0.0859-0.4629,0.1636-0.9307,0.2319-1.3994c-2.0703-1.3848-4.8501-1.166-6.9702,0.542
			C109.1245,70.7119,108.4995,74.1367,110.6035,76.75L110.6035,76.75z M109.7515,61.0468l-4.4829,5.4248
			c-0.333,0.4043-0.876,1.0606-1.5821,0.4766c-0.5678-0.4697-0.624-1.3008-1.1279-1.7178c-0.417-0.3447-1.061-0.1552-1.3428,0.1856
			c-0.9072,1.0967,0.2627,2.6367,1.1329,3.3564c1.1479,0.9483,2.957,1.5098,4.708-0.6103l4.5879-5.5508
			c0.521-0.6309,0.4091-1.3184-0.1329-1.7666C110.9688,60.3974,110.2739,60.416,109.7515,61.0468L109.7515,61.0468z
			 M78.4956,60.8427c0.8843,0,1.1953-0.5556,1.3091-0.9492l1.9639-6.8574h0.0332l0.9658,6.6611
			c0.1143,0.7696,0.4409,1.1455,1.2759,1.1455c0.6553,0,1.1792-0.458,1.1792-1.1777c0-0.082,0-0.1797-0.0171-0.2793l-1.522-9.1318
			c-0.0976-0.5889-0.7358-1.2598-1.604-1.2598c-0.8179,0-1.457,0.5889-1.6367,1.1777l-1.9312,6.4815h-0.0332l-1.9306-6.4815
			c-0.1802-0.5888-0.8184-1.1777-1.6363-1.1777c-0.8676,0-1.5058,0.6709-1.604,1.2598l-1.5229,9.1318
			c-0.0161,0.0996-0.0161,0.1973-0.0161,0.2793c0,0.7197,0.5239,1.1777,1.1782,1.1777c0.835,0,1.1631-0.3759,1.2769-1.1455
			l0.9663-6.6611h0.0317l1.9639,6.8574C77.3008,60.2871,77.6118,60.8427,78.4956,60.8427L78.4956,60.8427z M91.5796,60.6972
			l4.291,1.5117l-0.042,1.5977c-0.0146,0.5332,0.19,0.9873,0.8233,1.21c0.6167,0.2187,1.3047-0.0606,1.5229-0.6778
			c0.0869-0.247,0.0747-0.4599,0.0708-0.5478l-0.145-9.4903c-0.0117-0.8027-0.4131-1.5859-1.1997-1.8632
			c-0.8193-0.2881-1.5801,0.0507-2.103,0.6992l-5.9839,7.332c-0.1802,0.2148-0.2871,0.4199-0.3252,0.5283
			c-0.2119,0.6016,0.1348,1.1934,0.707,1.3936c0.648,0.2285,1.0918,0.0029,1.4092-0.4053L91.5796,60.6972L91.5796,60.6972z
			 M93.0249,58.8105l3.0117-3.9707l0.0313,0.0107l-0.1104,4.9932L93.0249,58.8105L93.0249,58.8105z M68.1778,60.4687l-5.9839-7.332
			c-0.523-0.6485-1.2852-0.9873-2.1031-0.6992c-0.7871,0.2773-1.1879,1.0605-1.2011,1.8632l-0.145,9.4903
			c-0.003,0.0879-0.0147,0.3008,0.0722,0.5478c0.2168,0.6172,0.9048,0.8965,1.523,0.6778c0.6328-0.2227,0.8369-0.6768,0.8227-1.21
			l-0.042-1.5977l4.291-1.5117l0.9742,1.2881c0.3178,0.4082,0.7622,0.6338,1.4101,0.4053c0.5708-0.2002,0.918-0.792,0.7056-1.3936
			C68.4639,60.8886,68.357,60.6835,68.1778,60.4687L68.1778,60.4687z M63.9668,58.8105l-2.9331,1.0332l-0.1098-4.9932l0.0307-0.0107
			L63.9668,58.8105L63.9668,58.8105z"/>
		<path class="st0" d="M156.9907,29.413c0-16.2441-13.1689-29.413-29.413-29.413c-16.2442,0-29.4131,13.1689-29.4131,29.413
			c0,0.6128,0.0254,1.2198,0.062,1.8238c-5.4707-2.7608-11.7217-4.395-18.376-4.5938l0.001-0.0332
			c-5.625-0.3056-10.4429-2.1347-12.938-4.6011c-0.6528-0.6865-1.2871-1.4248-1.8867-2.2265
			c-0.7271-1.0474-1.7271-1.6792-2.6851-1.6821v-0.0123c-0.021,0.001-0.041,0.0103-0.061,0.0123
			c-0.208,0.0048-0.4151,0.0297-0.6152,0.0991c-0.5967,0.2046-1.0489,0.6767-1.334,1.3037
			c-0.8858,1.313-1.5166,3.4492-1.7701,6.0181C56.6558,11.1181,44.3369,0,29.4131,0C13.169,0,0,13.1689,0,29.413
			c0,16.2442,13.169,29.4131,29.4126,29.4131c1.3604,0,2.6973-0.0996,4.0073-0.2793c-2.1494,1.5078-4.4638,2.919-6.9531,4.2032
			v0.0156c-1.3867,0.7197-2.2612,1.749-2.2612,2.8984c0,2.1709,3.1059,3.9307,6.938,3.9307c0.1504,0,0.2973-0.0069,0.4463-0.0117
			c0.6728,0.0205,1.3608-0.003,2.063-0.0889c1.6938-0.208,3.249-0.7188,4.5918-1.4395c2.0712-1.3945,4.8579-1.1796,6.9829,0.5323
			c2.6391,2.125,3.2641,5.5488,1.1591,8.1621c-1.707,2.1201-4.3628,2.5976-6.7177,1.5342
			c-1.9214,2.0459-3.1021,4.7275-3.1021,7.6796c0,6.4043,5.4859,11.5957,12.2529,11.5957c0.8531,0,1.6797-0.0966,2.483-0.2548
			l0.415,1.1406c0.02,0.0693,0.0508,0.1299,0.0718,0.1973l0.0674,0.1845h0.0019c0.0811,0.2324,0.1538,0.4717,0.2568,0.6826
			c0.4771,1.2598,1.9849,3.1153,4.0572,4.8584c0.749,0.6299,1.501,1.1846,2.2168,1.6485c4.518,3.1562,11.8379,5.209,20.104,5.209
			l0,0c0.001,0,0.001,0,0.0019,0h0.001l0,0c8.2661,0,15.5859-2.0528,20.105-5.209c0.7163-0.4639,1.4673-1.0186,2.2163-1.6485
			c2.0718-1.7431,3.5801-3.5986,4.0566-4.8584c0.1031-0.2109,0.1773-0.4502,0.2574-0.6826h0.0019l0.0669-0.1845
			c0.021-0.0674,0.0532-0.128,0.0723-0.1973l0.4145-1.1406c0.8042,0.1582,1.6304,0.2548,2.4834,0.2548
			c6.7666,0,12.253-5.1914,12.253-11.5957c0-2.9521-1.1812-5.6328-3.1011-7.6787c-2.356,1.0625-5.0122,0.585-6.7193-1.5341
			c-2.104-2.6133-1.479-6.0381,1.1602-8.1631c2.1201-1.708,4.8999-1.9268,6.9702-0.542c0.0689-0.4756,0.1279-0.9561,0.1758-1.4385
			l0,0c0.1069-1.082,0.1689-2.1768,0.1689-3.2842c0-2.0146-0.186-3.9892-0.5307-5.915c2.8457,0.918,5.8789,1.4189,9.0298,1.4189
			C143.8218,58.8261,156.9907,45.6572,156.9907,29.413L156.9907,29.413z M54.0425,69.2861
			c-0.9248,0.6484-2.7197,1.3672-3.5366,0.2012c-0.2544-0.3623-0.2652-1.0332,0.1767-1.3438
			c0.5362-0.376,1.3531-0.209,1.9561-0.6318c0.751-0.5254,0.2622-1.2227-0.0391-1.6514l-4.039-5.7637
			c-0.4698-0.6699-0.3037-1.3457,0.2719-1.75c0.5762-0.4033,1.2681-0.3291,1.7383,0.3418l4.1338,5.8965
			C56.2827,66.8369,55.2617,68.4306,54.0425,69.2861L54.0425,69.2861z M67.7959,62.3906c-0.6479,0.2285-1.0923,0.0029-1.4101-0.4053
			l-0.9742-1.2881l-4.291,1.5117l0.042,1.5977c0.0142,0.5332-0.1899,0.9873-0.8227,1.21c-0.6182,0.2187-1.3062-0.0606-1.523-0.6778
			c-0.0869-0.247-0.0752-0.4599-0.0722-0.5478l0.145-9.4903c0.0132-0.8027,0.414-1.5859,1.2011-1.8632
			c0.8179-0.2881,1.5801,0.0507,2.1031,0.6992l5.9839,7.332c0.1792,0.2139,0.2861,0.4199,0.3237,0.5283
			C68.7139,61.5986,68.3667,62.1904,67.7959,62.3906L67.7959,62.3906z M85.2227,59.665c0,0.7197-0.5239,1.1777-1.1792,1.1777
			c-0.835,0-1.1616-0.3759-1.2769-1.1455l-0.9648-6.6611h-0.0332l-1.9639,6.8574c-0.1138,0.3936-0.4248,0.9492-1.3091,0.9492
			c-0.8838,0-1.1948-0.5556-1.31-0.9492l-1.9639-6.8574H75.19l-0.9663,6.6611c-0.1138,0.7696-0.4419,1.1455-1.2769,1.1455
			c-0.6543,0-1.1782-0.458-1.1782-1.1777c0-0.082,0-0.1797,0.0161-0.2793l1.5229-9.1318c0.0982-0.5889,0.7364-1.2598,1.604-1.2598
			c0.8179,0,1.4561,0.5889,1.6363,1.1777l1.9306,6.4815h0.0332l1.9312-6.4815c0.1797-0.5888,0.8188-1.1777,1.6367-1.1777
			c0.8682,0,1.5064,0.6709,1.604,1.2598l1.522,9.1318C85.2227,59.4853,85.2227,59.583,85.2227,59.665L85.2227,59.665z
			 M98.1748,64.3388c-0.2182,0.6172-0.9062,0.8965-1.5229,0.6778c-0.6333-0.2227-0.8379-0.6768-0.8233-1.21l0.042-1.5977
			l-4.291-1.5117l-0.9746,1.2881c-0.3174,0.4082-0.7612,0.6338-1.4092,0.4053c-0.5722-0.2002-0.9189-0.792-0.707-1.3936
			c0.0381-0.1084,0.145-0.3144,0.3252-0.5283l5.9839-7.332c0.5229-0.6485,1.2837-0.9873,2.103-0.6992
			c0.7866,0.2773,1.188,1.0605,1.1997,1.8632l0.145,9.4903C98.2495,63.8789,98.2617,64.0918,98.1748,64.3388L98.1748,64.3388z
			 M111.6446,62.6113l-4.5879,5.5508c-1.751,2.1201-3.5601,1.5586-4.708,0.6103c-0.8702-0.7197-2.0401-2.2597-1.1329-3.3564
			c0.2818-0.3408,0.9258-0.5303,1.3428-0.1856c0.5039,0.417,0.5601,1.2481,1.1279,1.7178c0.7061,0.584,1.2491-0.0723,1.5821-0.4766
			l4.4829-5.4248c0.5224-0.6308,1.2173-0.6504,1.7602-0.2021C112.0537,61.2929,112.1656,61.9804,111.6446,62.6113L111.6446,62.6113z
			 M95.9575,59.8437l0.1104-4.9932l-0.0313-0.0107l-3.0117,3.9707L95.9575,59.8437L95.9575,59.8437z M61.0337,59.8437l2.9331-1.0332
			l-3.0122-3.9707l-0.0307,0.0107L61.0337,59.8437L61.0337,59.8437z M39.5425,73.6152c0.2354,0.7256,0.5,1.4394,0.7803,2.1475
			c1.4531,0.9062,3.1518,1.0009,4.3052-0.4297c1.3037-1.6192,0.5537-3.5049-1.0025-4.7578
			c-1.542-1.2422-3.5776-1.5586-4.8608,0.0351c-0.0059,0.0068-0.0098,0.0147-0.0161,0.0215
			C38.9737,71.6396,39.2266,72.6386,39.5425,73.6152L39.5425,73.6152L39.5425,73.6152z M116.6675,75.7627
			c0.2803-0.7061,0.5454-1.419,0.7793-2.1436l0,0c0.3159-0.9785,0.5698-1.9785,0.7949-2.9873
			c-0.0058-0.0068-0.0097-0.0137-0.0151-0.0205c-1.2827-1.5947-3.3198-1.2783-4.8618-0.0361
			c-1.5552,1.2529-2.3052,3.1386-1.002,4.7578C113.5156,76.7646,115.2149,76.6699,116.6675,75.7627L116.6675,75.7627z"/>
		<path class="st1" d="M31.0239,5.6801c-5.6162-0.6889-11.2324,2.7598-11.9501,8.606c-0.7178,5.8457,3.8969,10.5508,9.5126,11.2407
			c5.7696,0.708,11.1402-2.6538,11.8721-8.6147C41.1909,10.9502,36.7925,6.3891,31.0239,5.6801L31.0239,5.6801z M35.3819,16.288
			c-0.3682,3-3.461,4.0259-6.1153,3.6997c-2.6538-0.3256-5.4887-2.0395-5.1157-5.0786c0.373-3.0381,3.5386-4.0161,6.1919-3.6904
			C32.9966,11.5449,35.7505,13.288,35.3819,16.288L35.3819,16.288z M20.8291,25.2377c-3.9302-2.9619-8.7461-1.7866-11.6142,2.0191
			c-2.8687,3.8071-2.355,9.6294,1.5449,12.5674c1.2065,0.9096,2.8423,0.9287,3.9614-0.5572
			c2.2388-2.9711-4.0576-5.0468-1.3755-8.6059c0.9561-1.2691,2.7935-1.3882,4.062-0.4321c1.1143,0.8388,1.6773,2.0879,2.062,3.2519
			c1.6319,4.917,2.3184,9.8013,3.4468,14.6792c0.1377,0.5889,0.3916,1.4107,1.0415,1.9009c1.4239,1.0727,2.836,0.4868,3.8618-0.875
			l7.7891-10.3359c0.8867-1.1763,1.061-2.6954-0.3633-3.7681c-1.4238-1.0733-2.8359-0.4868-3.8618,0.875l-4.2676,5.6631
			C25.7871,36.4951,25.1309,28.479,20.8291,25.2377L20.8291,25.2377z"/>
		<path class="st1" d="M126.4165,28.852c-0.854-4.02-6.1738-6.2969-11.8818-5.083c-1.9268,0.4092-3.6441,1.1699-5.0508,2.145
			c1.0068,4.52,3.1021,8.3877,5.752,11.1299c0,0,1.373,1.5679,1.582,2.5513c0.0889,0.4189,0.1118,0.8388,0.0767,1.2529
			c-1.1929-1.6982-3.8951-2.543-6.751-1.936c-3.5039,0.7451-5.9097,3.3921-5.374,5.9131c0.5361,2.5209,3.81,3.9599,7.3139,3.2148
			c2.0073-0.4258,3.6533-1.4771,4.5933-2.771l0,0c0.7002-0.9282,1.2549-1.9839,1.6382-3.124
			c0.5439-1.5269,0.6518-3.5869,0.1909-5.7549h-0.002c-0.0034-0.0142-0.0073-0.0283-0.0112-0.043h0.0029
			c-0.0747-0.3139-0.601-1.8511-0.7158-2.393c-0.1123-0.5274-0.1499-1.0391-0.123-1.5093c0.0571-1.6148,1.2021-3.0459,2.8549-3.397
			c1.9483-0.4141,3.8628,0.8301,4.2769,2.7783c0.2651,1.2481-0.1499,2.481-0.9946,3.3159c0.1137-0.0371,0.2675-0.1333,0.2675-0.1333
			c0.0811-0.0527,0.3111-0.2529,0.3331-0.2768C126.0425,32.999,126.8516,30.8979,126.4165,28.852L126.4165,28.852z"/>
	</g>
</g>
</svg>
